<?xml version="1.0" encoding="UTF-8" standalone="no"?>
<!DOCTYPE svg PUBLIC "-//W3C//DTD SVG 1.1//EN"
 "http://www.w3.org/Graphics/SVG/1.1/DTD/svg11.dtd">
<!-- Generated by graphviz version 2.40.1 (20161225.0304)
 -->
<!-- Title: dependencies Pages: 1 -->
<svg width="1449pt" height="284pt"
 viewBox="0.00 0.00 1449.00 284.00" xmlns="http://www.w3.org/2000/svg" xmlns:xlink="http://www.w3.org/1999/xlink">
<g id="graph0" class="graph" transform="scale(1 1) rotate(0) translate(4 280)">
<title>dependencies</title>
<polygon fill="#ffffff" stroke="transparent" points="-4,4 -4,-280 1445,-280 1445,4 -4,4"/>
<text text-anchor="start" x="699.5091" y="-42.4" font-family="sans-serif" font-weight="bold" font-size="14.00" fill="#000000">Legend</text>
<polygon fill="#ffffb3" stroke="transparent" points="486.5,-10 486.5,-30 506.5,-30 506.5,-10 486.5,-10"/>
<text text-anchor="start" x="510.129" y="-15.4" font-family="sans-serif" font-size="14.00" fill="#000000"> &#160;Declarations</text>
<polygon fill="#8dd3c7" stroke="transparent" points="599.5,-10 599.5,-30 619.5,-30 619.5,-10 599.5,-10"/>
<text text-anchor="start" x="623.2251" y="-15.4" font-family="sans-serif" font-size="14.00" fill="#000000"> &#160;Module</text>
<polygon fill="#80b1d3" stroke="transparent" points="685.5,-10 685.5,-30 705.5,-30 705.5,-10 685.5,-10"/>
<text text-anchor="start" x="709.2812" y="-15.4" font-family="sans-serif" font-size="14.00" fill="#000000"> &#160;Bootstrap</text>
<polygon fill="#fdb462" stroke="transparent" points="782.5,-10 782.5,-30 802.5,-30 802.5,-10 782.5,-10"/>
<text text-anchor="start" x="806.1732" y="-15.4" font-family="sans-serif" font-size="14.00" fill="#000000"> &#160;Providers</text>
<polygon fill="#fb8072" stroke="transparent" points="878.5,-10 878.5,-30 898.5,-30 898.5,-10 878.5,-10"/>
<text text-anchor="start" x="902.2258" y="-15.4" font-family="sans-serif" font-size="14.00" fill="#000000"> &#160;Exports</text>
<g id="clust1" class="cluster">
<title>cluster_AppModule</title>
<polygon fill="none" stroke="#000000" stroke-dasharray="1,5" points="8,-70 8,-268 1433,-268 1433,-70 8,-70"/>
</g>
<g id="clust2" class="cluster">
<title>cluster_AppModule_declarations</title>
<polygon fill="none" stroke="#000000" points="788,-78 788,-130 1425,-130 1425,-78 788,-78"/>
</g>
<g id="clust7" class="cluster">
<title>cluster_AppModule_imports</title>
<polygon fill="none" stroke="#000000" points="94,-78 94,-130 780,-130 780,-78 94,-78"/>
</g>
<g id="clust9" class="cluster">
<title>cluster_AppModule_bootstrap</title>
<polygon fill="none" stroke="#000000" points="657,-208 657,-260 781,-260 781,-208 657,-208"/>
</g>
<g id="clust10" class="cluster">
<title>cluster_AppModule_providers</title>
<polygon fill="none" stroke="#000000" points="16,-78 16,-130 86,-130 86,-78 16,-78"/>
</g>
<!-- AppComponent -->
<g id="node1" class="node">
<title>AppComponent</title>
<polygon fill="#ffffb3" stroke="#000000" points="1416.9399,-122 1311.0601,-122 1311.0601,-86 1416.9399,-86 1416.9399,-122"/>
<text text-anchor="middle" x="1364" y="-99.8" font-family="Times,serif" font-size="14.00" fill="#000000">AppComponent</text>
</g>
<!-- AppModule -->
<g id="node5" class="node">
<title>AppModule</title>
<polygon fill="#8dd3c7" stroke="#000000" points="760.6571,-187 757.6571,-191 736.6571,-191 733.6571,-187 677.3429,-187 677.3429,-151 760.6571,-151 760.6571,-187"/>
<text text-anchor="middle" x="719" y="-164.8" font-family="Times,serif" font-size="14.00" fill="#000000">AppModule</text>
</g>
<!-- AppComponent&#45;&gt;AppModule -->
<g id="edge1" class="edge">
<title>AppComponent&#45;&gt;AppModule</title>
<path fill="none" stroke="#000000" d="M1364,-122.0109C1364,-144.4852 1364,-180 1364,-180 1364,-180 770.8233,-180 770.8233,-180"/>
<polygon fill="#000000" stroke="#000000" points="770.8233,-176.5001 760.8233,-180 770.8232,-183.5001 770.8233,-176.5001"/>
</g>
<!-- LoginPageComponent -->
<g id="node2" class="node">
<title>LoginPageComponent</title>
<polygon fill="#ffffb3" stroke="#000000" points="1292.9874,-122 1151.0126,-122 1151.0126,-86 1292.9874,-86 1292.9874,-122"/>
<text text-anchor="middle" x="1222" y="-99.8" font-family="Times,serif" font-size="14.00" fill="#000000">LoginPageComponent</text>
</g>
<!-- LoginPageComponent&#45;&gt;AppModule -->
<g id="edge2" class="edge">
<title>LoginPageComponent&#45;&gt;AppModule</title>
<path fill="none" stroke="#000000" d="M1222,-122.1289C1222,-142.5724 1222,-173 1222,-173 1222,-173 771.0203,-173 771.0203,-173"/>
<polygon fill="#000000" stroke="#000000" points="771.0204,-169.5001 761.0203,-173 771.0203,-176.5001 771.0204,-169.5001"/>
</g>
<!-- HomePageComponent -->
<g id="node3" class="node">
<title>HomePageComponent</title>
<polygon fill="#ffffb3" stroke="#000000" points="1133.2562,-122 990.7438,-122 990.7438,-86 1133.2562,-86 1133.2562,-122"/>
<text text-anchor="middle" x="1062" y="-99.8" font-family="Times,serif" font-size="14.00" fill="#000000">HomePageComponent</text>
</g>
<!-- HomePageComponent&#45;&gt;AppModule -->
<g id="edge3" class="edge">
<title>HomePageComponent&#45;&gt;AppModule</title>
<path fill="none" stroke="#000000" d="M1062,-122.2667C1062,-140.5552 1062,-166 1062,-166 1062,-166 770.7156,-166 770.7156,-166"/>
<polygon fill="#000000" stroke="#000000" points="770.7157,-162.5001 760.7156,-166 770.7156,-169.5001 770.7157,-162.5001"/>
</g>
<!-- RegistrationPageComponent -->
<g id="node4" class="node">
<title>RegistrationPageComponent</title>
<polygon fill="#ffffb3" stroke="#000000" points="972.4776,-122 795.5224,-122 795.5224,-86 972.4776,-86 972.4776,-122"/>
<text text-anchor="middle" x="884" y="-99.8" font-family="Times,serif" font-size="14.00" fill="#000000">RegistrationPageComponent</text>
</g>
<!-- RegistrationPageComponent&#45;&gt;AppModule -->
<g id="edge4" class="edge">
<title>RegistrationPageComponent&#45;&gt;AppModule</title>
<path fill="none" stroke="#000000" d="M884,-122.0091C884,-138.0494 884,-159 884,-159 884,-159 771.0634,-159 771.0634,-159"/>
<polygon fill="#000000" stroke="#000000" points="771.0634,-155.5001 761.0634,-159 771.0634,-162.5001 771.0634,-155.5001"/>
</g>
<!-- AppComponent  -->
<g id="node10" class="node">
<title>AppComponent </title>
<polygon fill="#80b1d3" stroke="#000000" points="773.439,-252 664.561,-252 664.561,-216 773.439,-216 773.439,-252"/>
<text text-anchor="middle" x="719" y="-229.8" font-family="Times,serif" font-size="14.00" fill="#000000">AppComponent </text>
</g>
<!-- AppModule&#45;&gt;AppComponent  -->
<g id="edge9" class="edge">
<title>AppModule&#45;&gt;AppComponent </title>
<path fill="none" stroke="#000000" stroke-dasharray="1,5" d="M719,-187.1061C719,-187.1061 719,-205.991 719,-205.991"/>
<polygon fill="#000000" stroke="#000000" points="715.5001,-205.9909 719,-215.991 722.5001,-205.991 715.5001,-205.9909"/>
</g>
<!-- BrowserModule -->
<g id="node6" class="node">
<title>BrowserModule</title>
<polygon fill="#8dd3c7" stroke="#000000" points="772.4734,-122 769.4734,-126 748.4734,-126 745.4734,-122 665.5266,-122 665.5266,-86 772.4734,-86 772.4734,-122"/>
<text text-anchor="middle" x="719" y="-99.8" font-family="Times,serif" font-size="14.00" fill="#000000">BrowserModule</text>
</g>
<!-- BrowserModule&#45;&gt;AppModule -->
<g id="edge5" class="edge">
<title>BrowserModule&#45;&gt;AppModule</title>
<path fill="none" stroke="#000000" d="M719,-122.1061C719,-122.1061 719,-140.991 719,-140.991"/>
<polygon fill="#000000" stroke="#000000" points="715.5001,-140.9909 719,-150.991 722.5001,-140.991 715.5001,-140.9909"/>
</g>
<!-- AngularFireModule.initializeApp(args) -->
<g id="node7" class="node">
<title>AngularFireModule.initializeApp(args)</title>
<polygon fill="#8dd3c7" stroke="#000000" points="647.7057,-122 644.7057,-126 623.7057,-126 620.7057,-122 410.2943,-122 410.2943,-86 647.7057,-86 647.7057,-122"/>
<text text-anchor="middle" x="529" y="-99.8" font-family="Times,serif" font-size="14.00" fill="#000000">AngularFireModule.initializeApp(args)</text>
</g>
<!-- AngularFireModule.initializeApp(args)&#45;&gt;AppModule -->
<g id="edge6" class="edge">
<title>AngularFireModule.initializeApp(args)&#45;&gt;AppModule</title>
<path fill="none" stroke="#000000" d="M529,-122.0091C529,-138.0494 529,-159 529,-159 529,-159 667.3037,-159 667.3037,-159"/>
<polygon fill="#000000" stroke="#000000" points="667.3037,-162.5001 677.3037,-159 667.3037,-155.5001 667.3037,-162.5001"/>
</g>
<!-- RouterModule.forRoot(args) -->
<g id="node8" class="node">
<title>RouterModule.forRoot(args)</title>
<polygon fill="#8dd3c7" stroke="#000000" points="392.8419,-122 389.8419,-126 368.8419,-126 365.8419,-122 215.1581,-122 215.1581,-86 392.8419,-86 392.8419,-122"/>
<text text-anchor="middle" x="304" y="-99.8" font-family="Times,serif" font-size="14.00" fill="#000000">RouterModule.forRoot(args)</text>
</g>
<!-- RouterModule.forRoot(args)&#45;&gt;AppModule -->
<g id="edge7" class="edge">
<title>RouterModule.forRoot(args)&#45;&gt;AppModule</title>
<path fill="none" stroke="#000000" d="M304,-122.2667C304,-140.5552 304,-166 304,-166 304,-166 667.3081,-166 667.3081,-166"/>
<polygon fill="#000000" stroke="#000000" points="667.3081,-169.5001 677.3081,-166 667.3081,-162.5001 667.3081,-169.5001"/>
</g>
<!-- FormsModule -->
<g id="node9" class="node">
<title>FormsModule</title>
<polygon fill="#8dd3c7" stroke="#000000" points="197.8288,-122 194.8288,-126 173.8288,-126 170.8288,-122 102.1712,-122 102.1712,-86 197.8288,-86 197.8288,-122"/>
<text text-anchor="middle" x="150" y="-99.8" font-family="Times,serif" font-size="14.00" fill="#000000">FormsModule</text>
</g>
<!-- FormsModule&#45;&gt;AppModule -->
<g id="edge8" class="edge">
<title>FormsModule&#45;&gt;AppModule</title>
<path fill="none" stroke="#000000" d="M150,-122.1289C150,-142.5724 150,-173 150,-173 150,-173 667.1601,-173 667.1601,-173"/>
<polygon fill="#000000" stroke="#000000" points="667.1601,-176.5001 677.1601,-173 667.16,-169.5001 667.1601,-176.5001"/>
</g>
<!-- AF -->
<g id="node11" class="node">
<title>AF</title>
<ellipse fill="#fdb462" stroke="#000000" cx="51" cy="-104" rx="27" ry="18"/>
<text text-anchor="middle" x="51" y="-99.8" font-family="Times,serif" font-size="14.00" fill="#000000">AF</text>
</g>
<!-- AF&#45;&gt;AppModule -->
<g id="edge10" class="edge">
<title>AF&#45;&gt;AppModule</title>
<path fill="none" stroke="#000000" d="M51,-122.0109C51,-144.4852 51,-180 51,-180 51,-180 667.2136,-180 667.2136,-180"/>
<polygon fill="#000000" stroke="#000000" points="667.2136,-183.5001 677.2136,-180 667.2136,-176.5001 667.2136,-183.5001"/>
</g>
</g>
</svg>
